<?xml version="1.0" encoding="UTF-8" standalone="no"?>
<!-- Generated by IcoMoon.io -->

<svg
   xmlns:dc="http://purl.org/dc/elements/1.1/"
   xmlns:cc="http://creativecommons.org/ns#"
   xmlns:rdf="http://www.w3.org/1999/02/22-rdf-syntax-ns#"
   xmlns:svg="http://www.w3.org/2000/svg"
   xmlns="http://www.w3.org/2000/svg"
   xmlns:sodipodi="http://sodipodi.sourceforge.net/DTD/sodipodi-0.dtd"
   xmlns:inkscape="http://www.inkscape.org/namespaces/inkscape"
   version="1.1"
   width="32"
   height="32"
   viewBox="0 0 32 32"
   id="svg2"
   inkscape:version="0.48.4 r9939"
   sodipodi:docname="untitled2.svg">
  <metadata
     id="metadata10">
    <rdf:RDF>
      <cc:Work
         rdf:about="">
        <dc:format>image/svg+xml</dc:format>
        <dc:type
           rdf:resource="http://purl.org/dc/dcmitype/StillImage" />
      </cc:Work>
    </rdf:RDF>
  </metadata>
  <defs
     id="defs8" />
  <sodipodi:namedview
     pagecolor="#ffffff"
     bordercolor="#666666"
     borderopacity="1"
     objecttolerance="10"
     gridtolerance="10"
     guidetolerance="10"
     inkscape:pageopacity="0"
     inkscape:pageshadow="2"
     inkscape:window-width="1360"
     inkscape:window-height="706"
     id="namedview6"
     showgrid="false"
     inkscape:zoom="7.375"
     inkscape:cx="42.033898"
     inkscape:cy="4.4086283"
     inkscape:window-x="-8"
     inkscape:window-y="-8"
     inkscape:window-maximized="1"
     inkscape:current-layer="svg2" />
  <path
     style="fill:#000000"
     d="M 7.8938027,30.688226 C 7.1552848,30.170947 7.1864407,30.824334 7.1864407,15.85374 l 0,-13.8392321 0.4640901,-0.5064834 0.4640901,-0.5064833 7.5698081,-0.0386389 c 4.163395,-0.0212514 7.702382,-0.006018 7.864417,0.0338522 0.162034,0.0398701 0.482373,0.26025624 0.711865,0.48974704 l 0.417255,0.417256 0,14.0370274 0,14.037027 -0.461017,0.461017 -0.461017,0.461017 -7.779999,0 c -6.8305935,0 -7.8168686,-0.02583 -8.0821303,-0.21162 z m 15.5340993,-2.737532 0.03807,-1.661017 -7.461801,0 -7.4618001,0 0,1.696073 0,1.696073 7.4237291,-0.03506 7.423729,-0.03506 0.03807,-1.661017 z m 0.02972,-12.440678 0,-9.4237291 -7.457627,0 -7.4576271,0 0,9.4237291 0,9.423729 7.4576271,0 7.457627,0 0,-9.423729 z m 0,-11.9176967 c 0,-1.0362992 -0.03997,-1.2889651 -0.21448,-1.3559322 -0.117963,-0.045267 -3.431184,-0.082304 -7.362711,-0.082304 -5.378946,0 -7.1885061,0.040274 -7.3109445,0.1627119 C 8.4675912,2.4186957 8.4067797,2.9254583 8.4067797,3.6727276 l 0,1.1932203 7.5254233,0 7.525424,0 0,-1.2736286 z"
     id="path3063"
     inkscape:connector-curvature="0" />
  <path
     style="fill:#000000"
     d="m 15.59322,29.121265 c -1.287948,-0.500561 -0.960033,-2.424809 0.413217,-2.424809 0.405077,0 0.585045,0.08701 0.862866,0.417184 0.461857,0.548886 0.454416,1.095226 -0.02184,1.60397 -0.440954,0.471029 -0.79101,0.583688 -1.254238,0.403655 z"
     id="path3065"
     inkscape:connector-curvature="0" />
</svg>
